<?xml version="1.0" encoding="iso-8859-1"?>
<!-- Generator: Adobe Illustrator 19.0.0, SVG Export Plug-In . SVG Version: 6.00 Build 0)  -->
<svg version="1.1" id="Layer_1" xmlns="http://www.w3.org/2000/svg" xmlns:xlink="http://www.w3.org/1999/xlink" x="0px" y="0px"
	 viewBox="0 0 512 512" style="enable-background:new 0 0 512 512;" xml:space="preserve">
<circle style="fill:#FFC61B;" cx="256" cy="256" r="256"/>
<path style="fill:#EAA22F;" d="M282.007,510.693c126.471-12.76,225.752-117.577,229.847-246.417L393.047,145.47l-55.396,40.219
	l-76.902-76.902l-5.897,66.191l-7.182,38.788l-64.646,84.184l-24.135,8.907l-43.187,25.026l94.865,94.865l-7.709,4.798
	L282.007,510.693z"/>
<path style="fill:#C92F00;" d="M309.145,421.791l-46.249-46.251V113.778c0-3.808-3.088-6.896-6.896-6.896
	c-3.808,0-6.896,3.088-6.896,6.896v261.763l-46.249,46.251c-2.694,2.693-2.694,7.059,0,9.75c2.691,2.694,7.061,2.694,9.75,0
	l36.499-36.497v31.622c0,3.808,3.088,6.896,6.896,6.896c3.808,0,6.896-3.088,6.896-6.896v-31.622l36.499,36.497
	c1.345,1.346,3.112,2.02,4.875,2.02s3.531-0.674,4.875-2.02C311.839,428.851,311.839,424.482,309.145,421.791z"/>
<path style="fill:#930000;" d="M309.145,421.791l-46.249-46.251V113.778c0-3.808-3.088-6.896-6.896-6.896
	c-0.197,0-0.381,0.041-0.574,0.059v326.565c0.193,0.016,0.378,0.059,0.574,0.059c3.808,0,6.896-3.088,6.896-6.896v-31.622
	l36.499,36.497c1.345,1.346,3.112,2.02,4.875,2.02s3.531-0.674,4.875-2.02C311.839,428.851,311.839,424.482,309.145,421.791z"/>
<rect x="129.293" y="162.909" style="fill:#FFFFFF;" width="253.414" height="170.667"/>
<rect x="255.431" y="162.909" style="fill:#D0D1D3;" width="127.281" height="170.667"/>
<g>
	<path style="fill:#D35933;" d="M128,170.667h256c7.854,0,14.222-6.368,14.222-14.222l0,0c0-7.854-6.368-14.222-14.222-14.222H128
		c-7.854,0-14.222,6.368-14.222,14.222l0,0C113.778,164.299,120.146,170.667,128,170.667z"/>
	<path style="fill:#D35933;" d="M120.673,334.007h270.653c3.808,0,6.896-3.087,6.896-6.896l0,0c0-3.808-3.087-6.896-6.896-6.896
		H120.673c-3.808,0-6.896,3.088-6.896,6.896l0,0C113.778,330.919,116.865,334.007,120.673,334.007z"/>
</g>
<g>
	<path style="fill:#B54324;" d="M384,142.222H255.426v28.444H384c7.854,0,14.222-6.368,14.222-14.222S391.854,142.222,384,142.222z"
		/>
	<path style="fill:#B54324;" d="M391.327,320.215H255.426v13.791h135.901c3.808,0,6.896-3.087,6.896-6.896
		S395.135,320.215,391.327,320.215z"/>
</g>
<path style="fill:#38C6D9;" d="M286.718,249.158c0,18.891,15.313,34.202,34.202,34.202c18.891,0,34.202-15.313,34.202-34.202
	c0-18.891-15.313-34.202-34.202-34.202v34.202H286.718z"/>
<path style="fill:#386895;" d="M270.653,238.277c0-18.891,15.313-34.202,34.202-34.202v34.202H270.653z"/>
<g>
</g>
<g>
</g>
<g>
</g>
<g>
</g>
<g>
</g>
<g>
</g>
<g>
</g>
<g>
</g>
<g>
</g>
<g>
</g>
<g>
</g>
<g>
</g>
<g>
</g>
<g>
</g>
<g>
</g>
</svg>
