<svg xmlns="http://www.w3.org/2000/svg" viewBox="0 0 512 512"><circle cx="256" cy="256" r="256" fill="#ffc61b"/><path d="M282.007 510.693c126.471-12.76 225.752-117.577 229.847-246.417L393.047 145.47l-55.396 40.219-76.902-76.902-5.897 66.191-7.182 38.788-64.646 84.184-24.135 8.907-43.187 25.026 94.865 94.865-7.709 4.798 79.149 79.147z" fill="#eaa22f"/><path d="M309.145 421.791l-46.249-46.251V113.778a6.897 6.897 0 0 0-13.792 0v261.763l-46.249 46.251a6.891 6.891 0 0 0 0 9.75 6.891 6.891 0 0 0 9.75 0l36.499-36.497v31.622a6.897 6.897 0 0 0 13.792 0v-31.622l36.499 36.497c1.345 1.346 3.112 2.02 4.875 2.02s3.531-.674 4.875-2.02a6.893 6.893 0 0 0 0-9.751z" fill="#c92f00"/><path d="M309.145 421.791l-46.249-46.251V113.778a6.897 6.897 0 0 0-6.896-6.896c-.197 0-.381.041-.574.059v326.565c.193.016.378.059.574.059a6.897 6.897 0 0 0 6.896-6.896v-31.622l36.499 36.497c1.345 1.346 3.112 2.02 4.875 2.02s3.531-.674 4.875-2.02a6.895 6.895 0 0 0 0-9.753z" fill="#930000"/><path fill="#fff" d="M129.293 162.909h253.414v170.667H129.293z"/><path fill="#d0d1d3" d="M255.431 162.909h127.281v170.667H255.431z"/><path d="M128 170.667h256c7.854 0 14.222-6.368 14.222-14.222 0-7.854-6.368-14.222-14.222-14.222H128c-7.854 0-14.222 6.368-14.222 14.222 0 7.854 6.368 14.222 14.222 14.222zm-7.327 163.34h270.653a6.896 6.896 0 0 0 0-13.792H120.673a6.897 6.897 0 0 0-6.896 6.896 6.897 6.897 0 0 0 6.896 6.896z" fill="#d35933"/><path d="M384 142.222H255.426v28.444H384c7.854 0 14.222-6.368 14.222-14.222s-6.368-14.222-14.222-14.222zm7.327 177.993H255.426v13.791h135.901a6.896 6.896 0 0 0 0-13.791z" fill="#b54324"/><path d="M286.718 249.158c0 18.891 15.313 34.202 34.202 34.202 18.891 0 34.202-15.313 34.202-34.202 0-18.891-15.313-34.202-34.202-34.202v34.202h-34.202z" fill="#38c6d9"/><path d="M270.653 238.277c0-18.891 15.313-34.202 34.202-34.202v34.202h-34.202z" fill="#386895"/></svg>