<svg xmlns="http://www.w3.org/2000/svg" viewBox="0 0 60 60"><path d="M60 8V0H0v8h2v40H1a1 1 0 1 0 0 2h28v2c0 .047.021.088.027.134C27.292 52.571 26 54.131 26 56c0 2.206 1.794 4 4 4s4-1.794 4-4c0-1.869-1.292-3.429-3.027-3.866.006-.046.027-.087.027-.134v-2h28a1 1 0 1 0 0-2h-1V8h2zM32 56c0 1.103-.897 2-2 2s-2-.897-2-2 .897-2 2-2 2 .897 2 2zm24-8H4V8h52v40z"/><path d="M8 25a.997.997 0 0 0 .707-.293L14 19.414V22a1 1 0 1 0 2 0v-5a.996.996 0 0 0-1-1h-5a1 1 0 1 0 0 2h2.586l-5.293 5.293A.999.999 0 0 0 8 25zm0 8h8v5H8zm0 7h8v5H8zm9-13h8v11h-8zm0 13h8v5h-8zm9-19h8v17h-8zm0 19h8v5h-8zm9-12h8v10h-8zm0 12h8v5h-8zm9 0h8v5h-8zm0-25h8v23h-8z"/></svg>