<svg xmlns="http://www.w3.org/2000/svg" viewBox="0 0 512 512"><path d="M398.748 189.901c-9.442 0-18.123 3.321-24.936 8.856-4.313-17.201-19.904-29.976-38.425-29.976a39.399 39.399 0 0 0-23.751 7.93v-.001c0-21.841-17.769-39.609-39.609-39.609a39.399 39.399 0 0 0-23.751 7.93V81.669c0-21.841-17.769-39.609-39.609-39.609s-39.609 17.769-39.609 39.609v186.78l-23.426-23.426c-29.051-29.051-54.042-9.432-58.146-5.819-19.791 15.063-14.875 36.751-6.673 47.771l88.278 124.628c.711 26.363 12.358 51.289 32.977 70.438C222.57 501.081 249.993 512 277.307 512h63.361c27.297 0 52.294-10.792 70.387-30.39 17.606-19.069 27.302-44.846 27.302-72.58V229.51c0-21.841-17.769-39.609-39.609-39.609zm-58.08 306.242h-63.361c-23.357 0-46.846-9.375-64.445-25.721-18.021-16.737-27.946-38.54-27.946-61.392v-2.523l-91.22-128.779-.127-.174c-1.134-1.513-10.668-15.088 3.695-25.86l.45-.338.399-.399c.037-.037 3.945-3.735 10.037-5.141a20.64 20.64 0 0 1 4.648-.533c7.085 0 14.338 3.669 21.623 10.953l50.495 50.495V81.669c0-13.097 10.655-23.751 23.751-23.751s23.751 10.655 23.751 23.751v158.4h15.857v-63.361c0-13.097 10.655-23.751 23.751-23.751 13.097 0 23.751 10.655 23.751 23.751v95.041h15.857v-63.361c0-13.097 10.655-23.751 23.751-23.751s23.751 10.655 23.751 23.751v95.041h15.857v-73.921c0-13.097 10.655-23.751 23.751-23.751 13.096 0 23.751 10.655 23.751 23.751v179.523h.002c.002 49.662-35.178 87.112-81.829 87.112z"/><path d="M208.667 0c-56.778 0-102.969 46.011-102.969 102.789 0 29.245 12.504 57.214 34.306 76.735l10.578-11.768c-18.447-16.518-29.027-40.135-29.027-64.876.001-48.034 39.079-87.022 87.113-87.022s87.112 38.663 87.112 87.293h15.857C311.636 46.064 265.445 0 208.667 0z"/></svg>