<svg xmlns="http://www.w3.org/2000/svg" viewBox="0 0 489.3 489.3"><path d="M476.95 0H12.35C5.55 0 .15 5.5.15 12.2V235c0 6.8 5.5 12.2 12.2 12.2s12.3-5.5 12.3-12.2V24.5h440.2v440.2h-211.9c-6.8 0-12.3 5.5-12.3 12.3s5.5 12.3 12.3 12.3h224c6.8 0 12.3-5.5 12.3-12.3V12.3c0-6.8-5.5-12.3-12.3-12.3z"/><path d="M.05 476.9c0 6.8 5.5 12.3 12.2 12.3h170.4c6.8 0 12.3-5.5 12.3-12.3V306.6c0-6.8-5.5-12.3-12.3-12.3H12.35c-6.8 0-12.2 5.5-12.2 12.3v170.3h-.1zm24.5-158.1h145.9v145.9H24.55V318.8zm198.4-52.5c2.4 2.4 5.5 3.6 8.7 3.6s6.3-1.2 8.7-3.6l138.6-138.7v79.9c0 6.8 5.5 12.3 12.3 12.3s12.3-5.5 12.3-12.3V98.1c0-6.8-5.5-12.3-12.3-12.3h-109.5c-6.8 0-12.3 5.5-12.3 12.3s5.5 12.3 12.3 12.3h79.9L222.95 249c-4.8 4.8-4.8 12.5 0 17.3z"/></svg>