<svg xmlns="http://www.w3.org/2000/svg" width="512" height="512" viewBox="0 0 512 512"><path d="M97.344 482.17c-23.311 0-45.215-9.084-61.689-25.555-34.01-34.014-34.01-89.361 0-123.371L305.343 63.543c21.727-21.75 50.645-33.713 81.39-33.713 30.75 0 59.667 11.963 81.395 33.713 21.748 21.744 33.726 50.645 33.726 81.389 0 30.75-11.964 59.65-33.708 81.381L255.843 438.596c-6.374 6.371-16.696 6.371-23.067 0-6.374-6.373-6.374-16.695 0-23.07l212.298-212.283c15.583-15.58 24.153-36.291 24.153-58.311 0-22.016-8.588-42.74-24.167-58.322-15.583-15.58-36.294-24.154-58.327-24.154-22.029 0-42.74 8.574-58.323 24.154L58.725 356.311c-21.283 21.301-21.283 55.938 0 77.234 20.645 20.617 56.589 20.617 77.233 0L317.049 252.44c4.924-4.924 7.745-11.74 7.745-18.688 0-7.045-2.755-13.686-7.759-18.689-10.291-10.291-27.067-10.322-37.358 0L156 338.754c-6.37 6.375-16.697 6.375-23.067 0-6.374-6.371-6.374-16.697 0-23.066l123.673-123.691c23.005-23.004 60.461-23.004 83.497 0 11.169 11.166 17.317 26 17.317 41.756 0 15.547-6.308 30.762-17.3 41.754L159.029 456.615c-16.474 16.471-38.379 25.555-61.685 25.555z"/></svg>