<svg xmlns="http://www.w3.org/2000/svg" viewBox="0 0 60 60"><path d="M60 8V0H0v8h2v40H1a1 1 0 1 0 0 2h28v2c0 .047.021.088.027.134C27.293 52.571 26 54.131 26 56c0 2.206 1.794 4 4 4s4-1.794 4-4c0-1.869-1.293-3.429-3.027-3.866.006-.046.027-.087.027-.134v-2h28a1 1 0 1 0 0-2h-1V8h2zM32 56c0 1.103-.897 2-2 2s-2-.897-2-2 .897-2 2-2 2 .897 2 2zM2 2h56v4H2V2zm54 46H4V8h52v40z"/><path d="M55 26.974C55 19.269 48.731 13 41.026 13h-1v14.974H55v-1zm-12.974-1V15.041c5.806.482 10.45 5.127 10.932 10.933H42.026z"/><path d="M6 27h7.412l4.714 8.485a1.015 1.015 0 0 0 .174.227.995.995 0 0 0 .357.219.98.98 0 0 0 .342.069h6.362c2.245 4.721 7.047 8 12.613 8 7.705 0 13.974-6.269 13.974-13.974v-1H38.974V16.053h-1C30.269 16.053 24 22.321 24 30.026c0 1.381.209 2.713.584 3.974h-4.995l-4.714-8.485c-.021-.039-.057-.062-.083-.097a.912.912 0 0 0-.137-.16c-.048-.042-.1-.072-.155-.104-.055-.033-.108-.065-.17-.087-.067-.024-.134-.032-.204-.041C14.083 25.02 14.045 25 14 25H6a1 1 0 1 0 0 2zm20 3.026c0-6.266 4.838-11.422 10.974-11.933v12.933h12.932C49.396 37.162 44.239 42 37.974 42c-4.426 0-8.289-2.42-10.362-6H31a1 1 0 1 0 0-2h-4.308A11.9 11.9 0 0 1 26 30.026zM8 23a1 1 0 0 0 1-1v-4a1 1 0 1 0-2 0v4a1 1 0 0 0 1 1zm3 0a1 1 0 0 0 1-1v-4a1 1 0 1 0-2 0v4a1 1 0 0 0 1 1z"/></svg>