<svg xmlns="http://www.w3.org/2000/svg" viewBox="0 0 485.999 485.999"><path d="M346.125 259.064c-13.552-19.128-31.846-33.931-53.186-43.106l-8.494-126.253C314.053 74.328 332.816 43.781 332.816 10c0-5.522-4.478-10-10-10H163.184c-5.522 0-10 4.478-10 10 0 33.804 18.784 64.362 48.421 79.731l-8.292 126.119c-46.091 19.745-76.616 65.612-76.616 116.149 0 5.522 4.478 10 10 10h80.375l26.107 135.887a10 10 0 0 0 19.64 0L278.928 342h80.375c5.522 0 10-4.478 10-10 0-26.313-8.014-51.534-23.178-72.936zM242.999 423l-15.562-81h31.124l-15.562 81zM137.171 322c3.835-40.272 30.594-75.567 69.012-89.753 11.763-4.343 24.148-6.549 36.816-6.549 5.522 0 10-4.478 10-10s-4.478-10-10-10c-9.913 0-19.684 1.146-29.199 3.399l8.209-124.856a10 10 0 0 0-6.096-9.871c-22.84-9.626-38.569-30.344-42.017-54.37h138.207c-3.445 24.012-19.161 44.724-41.981 54.354a10 10 0 0 0-6.09 9.884l9.374 139.337a10.002 10.002 0 0 0 6.505 8.707c38.354 14.203 65.08 49.504 68.917 89.718H137.171z"/><path d="M289.224 46.438c3.499-4.273 2.871-10.574-1.402-14.072-4.274-3.5-10.574-2.87-14.072 1.402-7.585 9.265-18.793 14.578-30.75 14.578-5.522 0-10 4.478-10 10s4.478 10 10 10c17.977 0 34.825-7.986 46.224-21.908z"/></svg>