<svg xmlns="http://www.w3.org/2000/svg" viewBox="0 0 206.519 206.519"><path d="M202.621 105.207H101.31V3.897A3.896 3.896 0 0 0 97.414 0H3.897A3.896 3.896 0 0 0 0 3.897V136.38a3.896 3.896 0 0 0 3.897 3.897h62.345v62.345a3.896 3.896 0 0 0 3.897 3.897h132.483a3.896 3.896 0 0 0 3.897-3.897v-93.517a3.899 3.899 0 0 0-3.898-3.898zm-132.483 0a3.896 3.896 0 0 0-3.897 3.897v23.379H7.793V7.793h85.724v97.414H70.138zm3.896 93.517V113h124.689v85.724H74.034zm62.345-167.552a3.896 3.896 0 0 0 3.897 3.897c19.338 0 35.069 15.733 35.069 35.069 0 2.152 1.743 3.897 3.897 3.897s3.897-1.745 3.897-3.897c0-23.634-19.228-42.862-42.862-42.862a3.896 3.896 0 0 0-3.898 3.896z"/><path d="M137.521 50.459c.761.761 1.758 1.142 2.755 1.142s1.994-.381 2.755-1.142a3.895 3.895 0 0 0 0-5.51l-13.775-13.777 13.775-13.777a3.895 3.895 0 1 0-5.51-5.51l-16.53 16.532a3.895 3.895 0 0 0 0 5.51l16.53 16.532zm27.945 16.926a3.895 3.895 0 1 0-5.51 5.51l16.53 16.532a3.893 3.893 0 0 0 5.51 0l16.53-16.532a3.895 3.895 0 1 0-5.51-5.51l-13.774 13.777-13.776-13.777z"/></svg>