<svg xmlns="http://www.w3.org/2000/svg" viewBox="0 0 297 297"><path d="M194.388 69.011c-3.922 3.917-3.924 10.271-.005 14.192 26.363 26.382 26.347 69.324-.038 95.724-3.918 3.923-3.916 10.275.004 14.194a10.01 10.01 0 0 0 7.096 2.938c2.569 0 5.139-.982 7.099-2.942 34.202-34.224 34.219-89.895.037-124.103-3.917-3.919-10.273-3.923-14.193-.003zm-37.52 28.79c-3.921 3.916-3.923 10.271-.005 14.191 10.51 10.519 10.509 27.633-.002 38.151-3.918 3.92-3.916 10.275.005 14.193a10 10 0 0 0 7.094 2.937 10 10 0 0 0 7.099-2.942c18.329-18.341 18.33-48.186.002-66.526-3.917-3.923-10.273-3.925-14.193-.004z"/><path d="M253.01 24.56c-3.918-3.922-10.272-3.924-14.192-.006-3.922 3.918-3.924 10.273-.005 14.193 50.854 50.887 50.832 133.707-.052 184.618-3.919 3.92-3.917 10.275.004 14.193a10.006 10.006 0 0 0 7.095 2.938c2.568 0 5.139-.982 7.099-2.942 58.702-58.734 58.725-154.284.051-212.994zM73.015 195.793c25.803-1.778 46.258-23.349 46.258-49.627 0-27.437-22.297-49.757-49.704-49.757s-49.705 22.32-49.705 49.757c0 26.276 20.454 47.847 46.259 49.627-19.32.743-36.335 7.723-48.193 19.86C5.747 228.122-.444 245.386.025 265.581c.127 5.449 4.581 9.803 10.033 9.803H129.07c5.452 0 9.907-4.354 10.033-9.805.469-20.196-5.724-37.462-17.907-49.931-11.857-12.134-28.865-19.112-48.181-19.855zm-33.079-49.627c0-16.367 13.293-29.685 29.633-29.685s29.632 13.317 29.632 29.685c0 16.37-13.292 29.688-29.632 29.688-16.34 0-29.633-13.318-29.633-29.688zM20.559 255.311c1.307-10.39 5.233-18.983 11.729-25.63 8.75-8.956 21.99-13.888 37.279-13.888 15.288 0 28.524 4.93 37.272 13.884 6.495 6.646 10.423 15.242 11.729 25.634H20.559z"/></svg>