<svg xmlns="http://www.w3.org/2000/svg" viewBox="0 0 60.442 60.442"><path d="M54.427 38.766C59.284 25.07 52.094 9.975 38.399 5.117a2 2 0 0 0-1.338 3.77c11.617 4.121 17.717 16.926 13.597 28.542-2.059 5.804-6.291 10.38-11.809 12.877l3.438-9.692a2 2 0 1 0-3.77-1.338l-4.91 13.846a2 2 0 0 0 1.216 2.554l13.116 4.65a2.002 2.002 0 0 0 2.554-1.216 2 2 0 0 0-1.216-2.554l-8.174-2.899c6.21-2.998 10.972-8.262 13.324-14.891zM6.015 21.677C1.158 35.373 8.348 50.468 22.043 55.326a2.002 2.002 0 0 0 2.554-1.216 2 2 0 0 0-1.216-2.554C11.764 47.435 5.664 34.631 9.784 23.014c2.059-5.804 6.291-10.381 11.809-12.877l-3.438 9.692a2 2 0 1 0 3.77 1.338l4.91-13.846a2 2 0 0 0-1.216-2.554L12.502.115a2.001 2.001 0 0 0-1.338 3.77l8.175 2.9c-6.21 2.998-10.973 8.263-13.324 14.892z"/></svg>