<svg xmlns="http://www.w3.org/2000/svg" viewBox="0 0 512 512"><path d="M507.698 214.151a9.625 9.625 0 0 0-9.076-.877l-102.79 42.83c-2.486-35.09-31.748-62.896-67.455-62.896h-9.833c23.552-17.635 38.889-45.665 38.889-77.283 0-53.269-43.34-96.604-96.604-96.604-45.672 0-83.955 31.896-93.969 74.561-13.299-16.029-33.356-26.259-55.766-26.259-39.953 0-72.453 32.5-72.453 72.453 0 21.148 9.163 40.148 23.66 53.406C27.493 196.246 0 225.402 0 260.915v164.056c0 37.335 30.368 67.708 67.698 67.708h260.679c35.707 0 64.969-27.807 67.455-62.896l102.79 42.83a9.646 9.646 0 0 0 9.076-.878 9.659 9.659 0 0 0 4.302-8.038V222.189a9.656 9.656 0 0 0-4.302-8.038zM260.83 38.641c42.613 0 77.283 34.67 77.283 77.283s-34.67 77.283-77.283 77.283-77.283-34.67-77.283-77.283 34.67-77.283 77.283-77.283zm-82.269 127.661a97.185 97.185 0 0 0 24.554 26.906h-42.929c8.012-7.409 14.342-16.571 18.375-26.906zM57.962 140.075c0-29.297 23.84-53.132 53.132-53.132 29.292 0 53.132 23.835 53.132 53.132 0 29.297-23.84 53.132-53.132 53.132-29.292.001-53.132-23.834-53.132-53.132zm318.793 130.416v154.481c0 26.679-21.698 48.387-48.377 48.387H67.698c-26.679 0-48.378-21.708-48.378-48.387V260.915c0-26.679 21.698-48.387 48.378-48.387h260.679c26.679 0 48.377 21.708 48.377 48.387v9.576zm115.924 178.717l-96.604-40.25V276.929l96.604-40.25v212.529z"/></svg>