<?xml version="1.0" encoding="iso-8859-1"?>
<!-- Generator: Adobe Illustrator 19.0.0, SVG Export Plug-In . SVG Version: 6.00 Build 0)  -->
<svg version="1.1" id="Layer_1" xmlns="http://www.w3.org/2000/svg" xmlns:xlink="http://www.w3.org/1999/xlink" x="0px" y="0px"
	 viewBox="0 0 512 512" style="enable-background:new 0 0 512 512;" xml:space="preserve">
<g>
	<g>
		<path d="M398.748,189.901c-9.442,0-18.123,3.321-24.936,8.856c-4.313-17.201-19.904-29.976-38.425-29.976
			c-8.903,0-17.129,2.952-23.751,7.93v-0.001c0-21.841-17.769-39.609-39.609-39.609c-8.903,0-17.129,2.952-23.751,7.93V81.669
			c0-21.841-17.769-39.609-39.609-39.609s-39.609,17.769-39.609,39.609v186.78l-23.426-23.426
			c-29.051-29.051-54.042-9.432-58.146-5.819c-19.791,15.063-14.875,36.751-6.673,47.771l88.278,124.628
			c0.711,26.363,12.358,51.289,32.977,70.438C222.57,501.081,249.993,512,277.307,512h63.361c27.297,0,52.294-10.792,70.387-30.39
			c17.606-19.069,27.302-44.846,27.302-72.58V229.51C438.357,207.669,420.588,189.901,398.748,189.901z M340.668,496.143h-63.361
			c-23.357,0-46.846-9.375-64.445-25.721c-18.021-16.737-27.946-38.54-27.946-61.392v-2.523l-91.22-128.779l-0.127-0.174
			c-1.134-1.513-10.668-15.088,3.695-25.86l0.45-0.338l0.399-0.399c0.037-0.037,3.945-3.735,10.037-5.141
			c1.541-0.355,3.09-0.533,4.648-0.533c7.085,0,14.338,3.669,21.623,10.953l50.495,50.495V81.669
			c0-13.097,10.655-23.751,23.751-23.751s23.751,10.655,23.751,23.751v158.4h15.857v-63.361c0-13.097,10.655-23.751,23.751-23.751
			c13.097,0,23.751,10.655,23.751,23.751v95.041h15.857v-63.361c0-13.097,10.655-23.751,23.751-23.751s23.751,10.655,23.751,23.751
			v95.041h15.857v-73.921c0-13.097,10.655-23.751,23.751-23.751c13.096,0,23.751,10.655,23.751,23.751v179.523h0.002
			C422.499,458.693,387.319,496.143,340.668,496.143z"/>
	</g>
</g>
<g>
	<g>
		<path d="M208.667,0c-56.778,0-102.969,46.011-102.969,102.789c0,29.245,12.504,57.214,34.306,76.735l10.578-11.768
			c-18.447-16.518-29.027-40.135-29.027-64.876c0.001-48.034,39.079-87.022,87.113-87.022s87.112,38.663,87.112,87.293h15.857
			C311.636,46.064,265.445,0,208.667,0z"/>
	</g>
</g>
<g>
</g>
<g>
</g>
<g>
</g>
<g>
</g>
<g>
</g>
<g>
</g>
<g>
</g>
<g>
</g>
<g>
</g>
<g>
</g>
<g>
</g>
<g>
</g>
<g>
</g>
<g>
</g>
<g>
</g>
</svg>
