<?xml version="1.0" encoding="iso-8859-1"?>
<!-- Generator: Adobe Illustrator 18.0.0, SVG Export Plug-In . SVG Version: 6.00 Build 0)  -->
<!DOCTYPE svg PUBLIC "-//W3C//DTD SVG 1.1//EN" "http://www.w3.org/Graphics/SVG/1.1/DTD/svg11.dtd">
<svg version="1.1" id="Capa_1" xmlns="http://www.w3.org/2000/svg" xmlns:xlink="http://www.w3.org/1999/xlink" x="0px" y="0px"
	 viewBox="0 0 60 60" style="enable-background:new 0 0 60 60;" xml:space="preserve">
<g>
	<path d="M60,8V0H0v8h2v40H1c-0.553,0-1,0.447-1,1s0.447,1,1,1h1h27v2c0,0.047,0.021,0.088,0.027,0.134
		C27.292,52.571,26,54.131,26,56c0,2.206,1.794,4,4,4s4-1.794,4-4c0-1.869-1.292-3.429-3.027-3.866C30.979,52.088,31,52.047,31,52
		v-2h27h1c0.553,0,1-0.447,1-1s-0.447-1-1-1h-1V8H60z M32,56c0,1.103-0.897,2-2,2s-2-0.897-2-2s0.897-2,2-2S32,54.897,32,56z M56,48
		H4V8h52V48z"/>
	<path d="M8,25c0.256,0,0.512-0.098,0.707-0.293L14,19.414V22c0,0.553,0.447,1,1,1s1-0.447,1-1v-5c0-0.13-0.026-0.26-0.077-0.382
		c-0.101-0.245-0.296-0.44-0.541-0.541C15.26,16.026,15.13,16,15,16h-5c-0.553,0-1,0.447-1,1s0.447,1,1,1h2.586l-5.293,5.293
		c-0.391,0.391-0.391,1.023,0,1.414C7.488,24.902,7.744,25,8,25z"/>
	<rect x="8" y="33" width="8" height="5"/>
	<rect x="8" y="40" width="8" height="5"/>
	<rect x="17" y="27" width="8" height="11"/>
	<rect x="17" y="40" width="8" height="5"/>
	<rect x="26" y="21" width="8" height="17"/>
	<rect x="26" y="40" width="8" height="5"/>
	<rect x="35" y="28" width="8" height="10"/>
	<rect x="35" y="40" width="8" height="5"/>
	<rect x="44" y="40" width="8" height="5"/>
	<rect x="44" y="15" width="8" height="23"/>
</g>
<g>
</g>
<g>
</g>
<g>
</g>
<g>
</g>
<g>
</g>
<g>
</g>
<g>
</g>
<g>
</g>
<g>
</g>
<g>
</g>
<g>
</g>
<g>
</g>
<g>
</g>
<g>
</g>
<g>
</g>
</svg>
