<?xml version="1.0" encoding="iso-8859-1"?>
<!-- Generator: Adobe Illustrator 18.0.0, SVG Export Plug-In . SVG Version: 6.00 Build 0)  -->
<!DOCTYPE svg PUBLIC "-//W3C//DTD SVG 1.1//EN" "http://www.w3.org/Graphics/SVG/1.1/DTD/svg11.dtd">
<svg version="1.1" id="Capa_1" xmlns="http://www.w3.org/2000/svg" xmlns:xlink="http://www.w3.org/1999/xlink" x="0px" y="0px"
	 viewBox="0 0 60 60" style="enable-background:new 0 0 60 60;" xml:space="preserve">
<g>
	<path d="M60,8V0H0v8h2v40H1c-0.552,0-1,0.447-1,1s0.448,1,1,1h1h27v2c0,0.047,0.021,0.088,0.027,0.134
		C27.293,52.571,26,54.131,26,56c0,2.206,1.794,4,4,4s4-1.794,4-4c0-1.869-1.293-3.429-3.027-3.866C30.979,52.088,31,52.047,31,52
		v-2h27h1c0.552,0,1-0.447,1-1s-0.448-1-1-1h-1V8H60z M32,56c0,1.103-0.897,2-2,2s-2-0.897-2-2s0.897-2,2-2S32,54.897,32,56z M2,2
		h56v4H2V2z M56,48H4V8h52V48z"/>
	<path d="M55,26.974C55,19.269,48.731,13,41.026,13h-1v14.974H55V26.974z M42.026,25.974V15.041
		c5.806,0.482,10.45,5.127,10.932,10.933H42.026z"/>
	<path d="M6,27h7.412l4.714,8.485c0.046,0.083,0.102,0.156,0.166,0.221c0.002,0.002,0.005,0.004,0.008,0.006
		c0.08,0.079,0.174,0.137,0.274,0.185c0.027,0.013,0.054,0.024,0.083,0.034c0.11,0.041,0.224,0.069,0.342,0.069
		c0.001,0,0.001,0,0.002,0h6.36c2.245,4.721,7.047,8,12.613,8c7.705,0,13.974-6.269,13.974-13.974v-1H38.974V16.053h-1
		C30.269,16.053,24,22.321,24,30.026c0,1.381,0.209,2.713,0.584,3.974h-4.995l-4.714-8.485c-0.021-0.039-0.057-0.062-0.083-0.097
		c-0.042-0.058-0.083-0.113-0.137-0.16c-0.048-0.042-0.1-0.072-0.155-0.104c-0.055-0.033-0.108-0.065-0.17-0.087
		c-0.067-0.024-0.134-0.032-0.204-0.041C14.083,25.02,14.045,25,14,25H6c-0.552,0-1,0.447-1,1S5.448,27,6,27z M26,30.026
		c0-6.266,4.838-11.422,10.974-11.933v12.933h12.932C49.396,37.162,44.239,42,37.974,42c-4.426,0-8.289-2.42-10.362-6H31
		c0.552,0,1-0.447,1-1s-0.448-1-1-1h-4.308C26.252,32.754,26,31.421,26,30.026z"/>
	<path d="M8,23c0.552,0,1-0.447,1-1v-4c0-0.553-0.448-1-1-1s-1,0.447-1,1v4C7,22.553,7.448,23,8,23z"/>
	<path d="M11,23c0.552,0,1-0.447,1-1v-4c0-0.553-0.448-1-1-1s-1,0.447-1,1v4C10,22.553,10.448,23,11,23z"/>
</g>
<g>
</g>
<g>
</g>
<g>
</g>
<g>
</g>
<g>
</g>
<g>
</g>
<g>
</g>
<g>
</g>
<g>
</g>
<g>
</g>
<g>
</g>
<g>
</g>
<g>
</g>
<g>
</g>
<g>
</g>
</svg>
