<?xml version="1.0" encoding="iso-8859-1"?>
<!-- Generator: Adobe Illustrator 19.0.0, SVG Export Plug-In . SVG Version: 6.00 Build 0)  -->
<svg version="1.1" id="Layer_1" xmlns="http://www.w3.org/2000/svg" xmlns:xlink="http://www.w3.org/1999/xlink" x="0px" y="0px"
	 viewBox="0 0 485.999 485.999" style="enable-background:new 0 0 485.999 485.999;" xml:space="preserve">
<g>
	<g>
		<g>
			<path d="M346.125,259.064c-13.552-19.128-31.846-33.931-53.186-43.106l-8.494-126.253C314.053,74.328,332.816,43.781,332.816,10
				c0-5.522-4.478-10-10-10H163.184c-5.522,0-10,4.478-10,10c0,33.804,18.784,64.362,48.421,79.731l-8.292,126.119
				c-46.091,19.745-76.616,65.612-76.616,116.149c0,5.522,4.478,10,10,10h80.375l26.107,135.887c0.904,4.709,5.025,8.113,9.82,8.113
				c4.795,0,8.916-3.404,9.82-8.113L278.928,342h80.375c5.522,0,10-4.478,10-10C369.303,305.687,361.289,280.466,346.125,259.064z
				 M242.999,423l-15.562-81h31.124L242.999,423z M137.171,322c3.835-40.272,30.594-75.567,69.012-89.753
				c11.763-4.343,24.148-6.549,36.816-6.549c5.522,0,10-4.478,10-10c0-5.522-4.478-10-10-10c-9.913,0-19.684,1.146-29.199,3.399
				l8.209-124.856c0.279-4.254-2.168-8.217-6.096-9.871c-22.84-9.626-38.569-30.344-42.017-54.37h138.207
				c-3.445,24.012-19.161,44.724-41.981,54.354c-3.931,1.658-6.376,5.628-6.09,9.884l9.374,139.337
				c0.265,3.931,2.812,7.339,6.505,8.707c38.354,14.203,65.08,49.504,68.917,89.718H137.171z"/>
			<path d="M289.224,46.438c3.499-4.273,2.871-10.574-1.402-14.072c-4.274-3.5-10.574-2.87-14.072,1.402
				c-7.585,9.265-18.793,14.578-30.75,14.578c-5.522,0-10,4.478-10,10c0,5.522,4.478,10,10,10
				C260.977,68.346,277.825,60.36,289.224,46.438z"/>
		</g>
	</g>
</g>
<g>
</g>
<g>
</g>
<g>
</g>
<g>
</g>
<g>
</g>
<g>
</g>
<g>
</g>
<g>
</g>
<g>
</g>
<g>
</g>
<g>
</g>
<g>
</g>
<g>
</g>
<g>
</g>
<g>
</g>
</svg>
