<?xml version="1.0" encoding="iso-8859-1"?>
<!-- Generator: Adobe Illustrator 18.0.0, SVG Export Plug-In . SVG Version: 6.00 Build 0)  -->
<!DOCTYPE svg PUBLIC "-//W3C//DTD SVG 1.1//EN" "http://www.w3.org/Graphics/SVG/1.1/DTD/svg11.dtd">
<svg version="1.1" id="Capa_1" xmlns="http://www.w3.org/2000/svg" xmlns:xlink="http://www.w3.org/1999/xlink" x="0px" y="0px"
	 viewBox="0 0 297 297" style="enable-background:new 0 0 297 297;" xml:space="preserve">
<g>
	<path d="M194.388,69.011c-3.922,3.917-3.924,10.271-0.005,14.192c26.363,26.382,26.347,69.324-0.038,95.724
		c-3.918,3.923-3.916,10.275,0.004,14.194c1.961,1.958,4.527,2.938,7.096,2.938c2.569,0,5.139-0.982,7.099-2.942
		c34.202-34.224,34.219-89.895,0.037-124.103C204.664,65.095,198.308,65.091,194.388,69.011z"/>
	<path d="M156.868,97.801c-3.921,3.916-3.923,10.271-0.005,14.191c10.51,10.519,10.509,27.633-0.002,38.151
		c-3.918,3.92-3.916,10.275,0.005,14.193c1.959,1.959,4.527,2.937,7.094,2.937c2.57,0,5.14-0.98,7.099-2.942
		c18.329-18.341,18.33-48.186,0.002-66.526C167.144,93.882,160.788,93.88,156.868,97.801z"/>
	<path d="M253.01,24.56c-3.918-3.922-10.272-3.924-14.192-0.006c-3.922,3.918-3.924,10.273-0.005,14.193
		c50.854,50.887,50.832,133.707-0.052,184.618c-3.919,3.92-3.917,10.275,0.004,14.193c1.96,1.958,4.526,2.938,7.095,2.938
		c2.568,0,5.139-0.982,7.099-2.942C311.661,178.82,311.684,83.27,253.01,24.56z"/>
	<path d="M73.015,195.793c25.803-1.778,46.258-23.349,46.258-49.627c0-27.437-22.297-49.757-49.704-49.757
		c-27.407,0-49.705,22.32-49.705,49.757c0,26.276,20.454,47.847,46.259,49.627c-19.32,0.743-36.335,7.723-48.193,19.86
		C5.747,228.122-0.444,245.386,0.025,265.581c0.127,5.449,4.581,9.803,10.033,9.803H129.07c5.452,0,9.907-4.354,10.033-9.805
		c0.469-20.196-5.724-37.462-17.907-49.931C109.339,203.514,92.331,196.536,73.015,195.793z M39.936,146.166
		c0-16.367,13.293-29.685,29.633-29.685c16.34,0,29.632,13.317,29.632,29.685c0,16.37-13.292,29.688-29.632,29.688
		C53.229,175.854,39.936,162.536,39.936,146.166z M20.559,255.311c1.307-10.39,5.233-18.983,11.729-25.63
		c8.75-8.956,21.99-13.888,37.279-13.888c15.288,0,28.524,4.93,37.272,13.884c6.495,6.646,10.423,15.242,11.729,25.634H20.559z"/>
</g>
<g>
</g>
<g>
</g>
<g>
</g>
<g>
</g>
<g>
</g>
<g>
</g>
<g>
</g>
<g>
</g>
<g>
</g>
<g>
</g>
<g>
</g>
<g>
</g>
<g>
</g>
<g>
</g>
<g>
</g>
</svg>
