<?xml version="1.0" encoding="iso-8859-1"?>
<!-- Generator: Adobe Illustrator 19.1.0, SVG Export Plug-In . SVG Version: 6.00 Build 0)  -->
<svg version="1.1" id="Capa_1" xmlns="http://www.w3.org/2000/svg" xmlns:xlink="http://www.w3.org/1999/xlink" x="0px" y="0px"
	 viewBox="0 0 60.442 60.442" style="enable-background:new 0 0 60.442 60.442;" xml:space="preserve">
<g>
	<g>
		<path d="M54.427,38.766C59.284,25.07,52.094,9.975,38.399,5.117c-1.044-0.368-2.185,0.176-2.554,1.216
			c-0.369,1.041,0.175,2.185,1.216,2.554c11.617,4.121,17.717,16.926,13.597,28.542c-2.059,5.804-6.291,10.38-11.809,12.877
			l3.438-9.692c0.369-1.042-0.175-2.185-1.216-2.554c-1.044-0.367-2.185,0.176-2.554,1.216l-4.91,13.846
			c-0.369,1.041,0.175,2.185,1.216,2.554l13.116,4.65c0.222,0.078,0.447,0.116,0.669,0.116c0.823,0,1.594-0.513,1.885-1.332
			c0.369-1.041-0.175-2.185-1.216-2.554l-8.174-2.899C47.313,50.659,52.075,45.395,54.427,38.766z"/>
		<path d="M6.015,21.677C1.158,35.373,8.348,50.468,22.043,55.326c0.222,0.078,0.447,0.116,0.669,0.116
			c0.823,0,1.594-0.513,1.885-1.332c0.369-1.041-0.175-2.185-1.216-2.554C11.764,47.435,5.664,34.631,9.784,23.014
			c2.059-5.804,6.291-10.381,11.809-12.877l-3.438,9.692c-0.369,1.042,0.175,2.185,1.216,2.554c0.222,0.078,0.447,0.116,0.669,0.116
			c0.823,0,1.594-0.513,1.885-1.332l4.91-13.846c0.369-1.041-0.175-2.185-1.216-2.554L12.502,0.115
			c-1.045-0.367-2.185,0.176-2.554,1.216c-0.369,1.041,0.175,2.185,1.216,2.554l8.175,2.9C13.129,9.783,8.366,15.048,6.015,21.677z"
			/>
	</g>
</g>
<g>
</g>
<g>
</g>
<g>
</g>
<g>
</g>
<g>
</g>
<g>
</g>
<g>
</g>
<g>
</g>
<g>
</g>
<g>
</g>
<g>
</g>
<g>
</g>
<g>
</g>
<g>
</g>
<g>
</g>
</svg>
