<?xml version="1.0" encoding="iso-8859-1"?>
<!-- Generator: Adobe Illustrator 19.0.0, SVG Export Plug-In . SVG Version: 6.00 Build 0)  -->
<svg version="1.1" id="Layer_1" xmlns="http://www.w3.org/2000/svg" xmlns:xlink="http://www.w3.org/1999/xlink" x="0px" y="0px"
	 viewBox="0 0 512 512" style="enable-background:new 0 0 512 512;" xml:space="preserve">
<g>
	<g>
		<path d="M507.698,214.151c-2.689-1.797-6.085-2.127-9.076-0.877l-102.79,42.83c-2.486-35.09-31.748-62.896-67.455-62.896h-9.833
			c23.552-17.635,38.889-45.665,38.889-77.283c0-53.269-43.34-96.604-96.604-96.604c-45.672,0-83.955,31.896-93.969,74.561
			c-13.299-16.029-33.356-26.259-55.766-26.259c-39.953,0-72.453,32.5-72.453,72.453c0,21.148,9.163,40.148,23.66,53.406
			C27.493,196.246,0,225.402,0,260.915v164.056c0,37.335,30.368,67.708,67.698,67.708h260.679c35.707,0,64.969-27.807,67.455-62.896
			l102.79,42.83c1.198,0.5,2.462,0.745,3.717,0.745c1.877,0,3.745-0.547,5.359-1.623c2.688-1.792,4.302-4.807,4.302-8.038V222.189
			C512,218.958,510.387,215.943,507.698,214.151z M260.83,38.641c42.613,0,77.283,34.67,77.283,77.283
			c0,42.613-34.67,77.283-77.283,77.283c-42.613,0-77.283-34.67-77.283-77.283C183.547,73.311,218.217,38.641,260.83,38.641z
			 M178.561,166.302c6.425,10.455,14.762,19.573,24.554,26.906h-42.929C168.198,185.799,174.528,176.637,178.561,166.302z
			 M57.962,140.075c0-29.297,23.84-53.132,53.132-53.132c29.292,0,53.132,23.835,53.132,53.132c0,29.297-23.84,53.132-53.132,53.132
			C81.802,193.208,57.962,169.373,57.962,140.075z M376.755,270.491v144.906v9.575c0,26.679-21.698,48.387-48.377,48.387H67.698
			c-26.679,0-48.378-21.708-48.378-48.387V260.915c0-26.679,21.698-48.387,48.378-48.387h260.679
			c26.679,0,48.377,21.708,48.377,48.387V270.491z M492.679,449.208l-96.604-40.25V276.929l96.604-40.25V449.208z"/>
	</g>
</g>
<g>
</g>
<g>
</g>
<g>
</g>
<g>
</g>
<g>
</g>
<g>
</g>
<g>
</g>
<g>
</g>
<g>
</g>
<g>
</g>
<g>
</g>
<g>
</g>
<g>
</g>
<g>
</g>
<g>
</g>
</svg>
