<?xml version="1.0" encoding="iso-8859-1"?><!DOCTYPE svg PUBLIC "-//W3C//DTD SVG 1.1//EN" "http://www.w3.org/Graphics/SVG/1.1/DTD/svg11.dtd"><svg xmlns="http://www.w3.org/2000/svg" xmlns:xlink="http://www.w3.org/1999/xlink"><defs><svg viewBox="0 0 507.2 507.2" id="cancel"><circle cx="253.6" cy="253.6" r="253.6" fill="#f15249"/><path d="M147.2 368L284 504.8c115.2-13.6 206.4-104 220.8-219.2L367.2 148l-220 220z" fill="#ad0e0e"/><path d="M373.6 309.6c11.2 11.2 11.2 30.4 0 41.6l-22.4 22.4c-11.2 11.2-30.4 11.2-41.6 0l-176-176c-11.2-11.2-11.2-30.4 0-41.6l23.2-23.2c11.2-11.2 30.4-11.2 41.6 0l175.2 176.8z" fill="#fff"/><path d="M280.8 216L216 280.8l93.6 92.8c11.2 11.2 30.4 11.2 41.6 0l23.2-23.2c11.2-11.2 11.2-30.4 0-41.6L280.8 216z" fill="#d6d6d6"/><path d="M309.6 133.6c11.2-11.2 30.4-11.2 41.6 0l23.2 23.2c11.2 11.2 11.2 30.4 0 41.6L197.6 373.6c-11.2 11.2-30.4 11.2-41.6 0l-22.4-22.4c-11.2-11.2-11.2-30.4 0-41.6l176-176z" fill="#fff"/></svg><svg viewBox="0 0 507.2 507.2" id="checked"><circle cx="253.6" cy="253.6" r="253.6" fill="#32ba7c"/><path d="M188.8 368l130.4 130.4c108-28.8 188-127.2 188-244.8v-7.2L404.8 152l-216 216z" fill="#0aa06e"/><g fill="#fff"><path d="M260 310.4c11.2 11.2 11.2 30.4 0 41.6l-23.2 23.2c-11.2 11.2-30.4 11.2-41.6 0L93.6 272.8c-11.2-11.2-11.2-30.4 0-41.6l23.2-23.2c11.2-11.2 30.4-11.2 41.6 0L260 310.4z"/><path d="M348.8 133.6c11.2-11.2 30.4-11.2 41.6 0l23.2 23.2c11.2 11.2 11.2 30.4 0 41.6l-176 175.2c-11.2 11.2-30.4 11.2-41.6 0l-23.2-23.2c-11.2-11.2-11.2-30.4 0-41.6l176-175.2z"/></g></svg><svg viewBox="0 0 512 512" id="media-container--clicker"><path d="M398.748 189.901c-9.442 0-18.123 3.321-24.936 8.856-4.313-17.201-19.904-29.976-38.425-29.976a39.399 39.399 0 0 0-23.751 7.93v-.001c0-21.841-17.769-39.609-39.609-39.609a39.399 39.399 0 0 0-23.751 7.93V81.669c0-21.841-17.769-39.609-39.609-39.609s-39.609 17.769-39.609 39.609v186.78l-23.426-23.426c-29.051-29.051-54.042-9.432-58.146-5.819-19.791 15.063-14.875 36.751-6.673 47.771l88.278 124.628c.711 26.363 12.358 51.289 32.977 70.438C222.57 501.081 249.993 512 277.307 512h63.361c27.297 0 52.294-10.792 70.387-30.39 17.606-19.069 27.302-44.846 27.302-72.58V229.51c0-21.841-17.769-39.609-39.609-39.609zm-58.08 306.242h-63.361c-23.357 0-46.846-9.375-64.445-25.721-18.021-16.737-27.946-38.54-27.946-61.392v-2.523l-91.22-128.779-.127-.174c-1.134-1.513-10.668-15.088 3.695-25.86l.45-.338.399-.399c.037-.037 3.945-3.735 10.037-5.141a20.64 20.64 0 0 1 4.648-.533c7.085 0 14.338 3.669 21.623 10.953l50.495 50.495V81.669c0-13.097 10.655-23.751 23.751-23.751s23.751 10.655 23.751 23.751v158.4h15.857v-63.361c0-13.097 10.655-23.751 23.751-23.751 13.097 0 23.751 10.655 23.751 23.751v95.041h15.857v-63.361c0-13.097 10.655-23.751 23.751-23.751s23.751 10.655 23.751 23.751v95.041h15.857v-73.921c0-13.097 10.655-23.751 23.751-23.751 13.096 0 23.751 10.655 23.751 23.751v179.523h.002c.002 49.662-35.178 87.112-81.829 87.112z"/><path d="M208.667 0c-56.778 0-102.969 46.011-102.969 102.789 0 29.245 12.504 57.214 34.306 76.735l10.578-11.768c-18.447-16.518-29.027-40.135-29.027-64.876.001-48.034 39.079-87.022 87.113-87.022s87.112 38.663 87.112 87.293h15.857C311.636 46.064 265.445 0 208.667 0z"/></svg><svg viewBox="0 0 489.3 489.3" id="media-container--expand"><path d="M476.95 0H12.35C5.55 0 .15 5.5.15 12.2V235c0 6.8 5.5 12.2 12.2 12.2s12.3-5.5 12.3-12.2V24.5h440.2v440.2h-211.9c-6.8 0-12.3 5.5-12.3 12.3s5.5 12.3 12.3 12.3h224c6.8 0 12.3-5.5 12.3-12.3V12.3c0-6.8-5.5-12.3-12.3-12.3z"/><path d="M.05 476.9c0 6.8 5.5 12.3 12.2 12.3h170.4c6.8 0 12.3-5.5 12.3-12.3V306.6c0-6.8-5.5-12.3-12.3-12.3H12.35c-6.8 0-12.2 5.5-12.2 12.3v170.3h-.1zm24.5-158.1h145.9v145.9H24.55V318.8zM222.95 266.3c2.4 2.4 5.5 3.6 8.7 3.6s6.3-1.2 8.7-3.6l138.6-138.7v79.9c0 6.8 5.5 12.3 12.3 12.3s12.3-5.5 12.3-12.3V98.1c0-6.8-5.5-12.3-12.3-12.3h-109.5c-6.8 0-12.3 5.5-12.3 12.3s5.5 12.3 12.3 12.3h79.9L222.95 249c-4.8 4.8-4.8 12.5 0 17.3z"/></svg><svg viewBox="0 0 384.97 384.97" id="media-container--fullscreen"><path d="M384.97 12.03c0-6.713-5.317-12.03-12.03-12.03H264.847c-6.833 0-11.922 5.39-11.934 12.223 0 6.821 5.101 11.838 11.934 11.838h96.062l-.193 96.519c0 6.833 5.197 12.03 12.03 12.03 6.833-.012 12.03-5.197 12.03-12.03l.193-108.369c0-.036-.012-.06-.012-.084.001-.037.013-.061.013-.097zM120.496 0H12.403c-.036 0-.06.012-.096.012-.024 0-.06-.012-.084-.012C5.51 0 .192 5.317.192 12.03L0 120.399c0 6.833 5.39 11.934 12.223 11.934 6.821 0 11.838-5.101 11.838-11.934l.192-96.339h96.242c6.833 0 12.03-5.197 12.03-12.03C132.514 5.197 127.317 0 120.496 0zM120.123 360.909H24.061v-96.242c0-6.833-5.197-12.03-12.03-12.03S0 257.833 0 264.667v108.092c0 .036.012.06.012.084 0 .036-.012.06-.012.096 0 6.713 5.317 12.03 12.03 12.03h108.092c6.833 0 11.922-5.39 11.934-12.223.001-6.82-5.1-11.837-11.933-11.837zM372.747 252.913c-6.833 0-11.85 5.101-11.838 11.934v96.062h-96.242c-6.833 0-12.03 5.197-12.03 12.03s5.197 12.03 12.03 12.03h108.092c.036 0 .06-.012.084-.012.036-.012.06.012.096.012 6.713 0 12.03-5.317 12.03-12.03V264.847c.001-6.833-5.389-11.934-12.222-11.934z"/></svg><svg viewBox="0 0 100 125" id="media-container--media-layout-main"><path d="M16.5 16.5v67h67v-67h-67zm64 3v39h-61v-39h61zm-21.333 42v19H40.833v-19h18.334zm-39.667 0h18.333v19H19.5v-19zm42.667 19v-19H80.5v19H62.167z"/><text y="115" font-size="5" font-weight="bold" font-family="'Helvetica Neue', Helvetica, Arial-Unicode, Arial, Sans-serif">Created by Yu luck</text><text y="120" font-size="5" font-weight="bold" font-family="'Helvetica Neue', Helvetica, Arial-Unicode, Arial, Sans-serif">from the Noun Project</text></svg><svg viewBox="0 0 100 125" id="media-container--media-layout-tiles"><path d="M16.5 16.5v67h67v-67h-67zm64 32h-29v-29h29v29zm-32-29v29h-29v-29h29zm-29 32h29v29h-29v-29zm32 29v-29h29v29h-29z"/><text y="115" font-size="5" font-weight="bold" font-family="'Helvetica Neue', Helvetica, Arial-Unicode, Arial, Sans-serif">Created by Yu luck</text><text y="120" font-size="5" font-weight="bold" font-family="'Helvetica Neue', Helvetica, Arial-Unicode, Arial, Sans-serif">from the Noun Project</text></svg><svg viewBox="0 0 512 512" id="media-container--metal-paper-clip"><path d="M97.344 482.17c-23.311 0-45.215-9.084-61.689-25.555-34.01-34.014-34.01-89.361 0-123.371L305.343 63.543c21.727-21.75 50.645-33.713 81.39-33.713 30.75 0 59.667 11.963 81.395 33.713 21.748 21.744 33.726 50.645 33.726 81.389 0 30.75-11.964 59.65-33.708 81.381L255.843 438.596c-6.374 6.371-16.696 6.371-23.067 0-6.374-6.373-6.374-16.695 0-23.07l212.298-212.283c15.583-15.58 24.153-36.291 24.153-58.311 0-22.016-8.588-42.74-24.167-58.322-15.583-15.58-36.294-24.154-58.327-24.154-22.029 0-42.74 8.574-58.323 24.154L58.725 356.311c-21.283 21.301-21.283 55.938 0 77.234 20.645 20.617 56.589 20.617 77.233 0L317.049 252.44c4.924-4.924 7.745-11.74 7.745-18.688 0-7.045-2.755-13.686-7.759-18.689-10.291-10.291-27.067-10.322-37.358 0L156 338.754c-6.37 6.375-16.697 6.375-23.067 0-6.374-6.371-6.374-16.697 0-23.066l123.673-123.691c23.005-23.004 60.461-23.004 83.497 0 11.169 11.166 17.317 26 17.317 41.756 0 15.547-6.308 30.762-17.3 41.754L159.029 456.615c-16.474 16.471-38.379 25.555-61.685 25.555z"/></svg><svg viewBox="0 0 58 58" id="media-container--microphone"><path d="M44 28a1 1 0 0 0-1 1v6c0 7.72-6.28 14-14 14s-14-6.28-14-14v-6a1 1 0 1 0-2 0v6c0 8.485 6.644 15.429 15 15.949V56h-5a1 1 0 1 0 0 2h12a1 1 0 1 0 0-2h-5v-5.051c8.356-.52 15-7.465 15-15.949v-6a1 1 0 0 0-1-1z"/><path d="M29 46c6.065 0 11-4.935 11-11V11c0-6.065-4.935-11-11-11S18 4.935 18 11v24c0 6.065 4.935 11 11 11zm-9-35c0-4.963 4.038-9 9-9s9 4.037 9 9v24c0 4.963-4.038 9-9 9s-9-4.037-9-9V11z"/></svg><svg viewBox="0 0 489.3 489.3" id="media-container--minimize"><path d="M.05 12.3v222.8c0 6.8 5.5 12.3 12.3 12.3s12.3-5.5 12.3-12.3V24.5h440.2v440.2h-211.9c-6.8 0-12.3 5.5-12.3 12.3s5.5 12.3 12.3 12.3h224c6.8 0 12.3-5.5 12.3-12.3V12.3c0-6.8-5.5-12.3-12.3-12.3H12.35C5.55 0 .05 5.5.05 12.3z"/><path d="M.05 476.9c0 6.8 5.5 12.3 12.3 12.3h170.3c6.8 0 12.3-5.5 12.3-12.3V306.6c0-6.8-5.5-12.3-12.3-12.3H12.35c-6.8 0-12.3 5.5-12.3 12.3v170.3zm24.5-158.1h145.9v145.9H24.55V318.8zM231.55 135.9c-6.8 0-12.3 5.5-12.3 12.3v109.5c0 6.8 5.5 12.3 12.3 12.3h109.5c6.8 0 12.3-5.5 12.3-12.3s-5.5-12.3-12.3-12.3h-79.9l138.7-138.7c4.8-4.8 4.8-12.5 0-17.3s-12.5-4.8-17.3 0l-138.7 138.7v-79.9c0-6.8-5.5-12.3-12.3-12.3z"/></svg><svg viewBox="0 0 60 60" id="media-container--presentation"><path d="M60 8V0H0v8h2v40H1a1 1 0 1 0 0 2h28v2c0 .047.021.088.027.134C27.293 52.571 26 54.131 26 56c0 2.206 1.794 4 4 4s4-1.794 4-4c0-1.869-1.293-3.429-3.027-3.866.006-.046.027-.087.027-.134v-2h28a1 1 0 1 0 0-2h-1V8h2zM32 56c0 1.103-.897 2-2 2s-2-.897-2-2 .897-2 2-2 2 .897 2 2zM2 2h56v4H2V2zm54 46H4V8h52v40z"/><path d="M55 26.974C55 19.269 48.731 13 41.026 13h-1v14.974H55v-1zm-12.974-1V15.041c5.806.482 10.45 5.127 10.932 10.933H42.026z"/><path d="M6 27h7.412l4.714 8.485a1.015 1.015 0 0 0 .174.227.995.995 0 0 0 .357.219.98.98 0 0 0 .342.069h6.362c2.245 4.721 7.047 8 12.613 8 7.705 0 13.974-6.269 13.974-13.974v-1H38.974V16.053h-1C30.269 16.053 24 22.321 24 30.026c0 1.381.209 2.713.584 3.974h-4.995l-4.714-8.485c-.021-.039-.057-.062-.083-.097a.912.912 0 0 0-.137-.16c-.048-.042-.1-.072-.155-.104-.055-.033-.108-.065-.17-.087-.067-.024-.134-.032-.204-.041C14.083 25.02 14.045 25 14 25H6a1 1 0 1 0 0 2zm20 3.026c0-6.266 4.838-11.422 10.974-11.933v12.933h12.932C49.396 37.162 44.239 42 37.974 42c-4.426 0-8.289-2.42-10.362-6H31a1 1 0 1 0 0-2h-4.308A11.9 11.9 0 0 1 26 30.026zM8 23a1 1 0 0 0 1-1v-4a1 1 0 1 0-2 0v4a1 1 0 0 0 1 1zM11 23a1 1 0 0 0 1-1v-4a1 1 0 1 0-2 0v4a1 1 0 0 0 1 1z"/></svg><svg viewBox="0 0 60 60" id="media-container--presentation2"><path d="M60 8V0H0v8h2v40H1a1 1 0 1 0 0 2h28v2c0 .047.021.088.027.134C27.292 52.571 26 54.131 26 56c0 2.206 1.794 4 4 4s4-1.794 4-4c0-1.869-1.292-3.429-3.027-3.866.006-.046.027-.087.027-.134v-2h28a1 1 0 1 0 0-2h-1V8h2zM32 56c0 1.103-.897 2-2 2s-2-.897-2-2 .897-2 2-2 2 .897 2 2zm24-8H4V8h52v40z"/><path d="M8 25a.997.997 0 0 0 .707-.293L14 19.414V22a1 1 0 1 0 2 0v-5a.996.996 0 0 0-1-1h-5a1 1 0 1 0 0 2h2.586l-5.293 5.293A.999.999 0 0 0 8 25zM8 33h8v5H8zM8 40h8v5H8zM17 27h8v11h-8zM17 40h8v5h-8zM26 21h8v17h-8zM26 40h8v5h-8zM35 28h8v10h-8zM35 40h8v5h-8zM44 40h8v5h-8zM44 15h8v23h-8z"/></svg><svg viewBox="0 0 485.999 485.999" id="media-container--push-pin"><path d="M346.125 259.064c-13.552-19.128-31.846-33.931-53.186-43.106l-8.494-126.253C314.053 74.328 332.816 43.781 332.816 10c0-5.522-4.478-10-10-10H163.184c-5.522 0-10 4.478-10 10 0 33.804 18.784 64.362 48.421 79.731l-8.292 126.119c-46.091 19.745-76.616 65.612-76.616 116.149 0 5.522 4.478 10 10 10h80.375l26.107 135.887a10 10 0 0 0 19.64 0L278.928 342h80.375c5.522 0 10-4.478 10-10 0-26.313-8.014-51.534-23.178-72.936zM242.999 423l-15.562-81h31.124l-15.562 81zM137.171 322c3.835-40.272 30.594-75.567 69.012-89.753 11.763-4.343 24.148-6.549 36.816-6.549 5.522 0 10-4.478 10-10s-4.478-10-10-10c-9.913 0-19.684 1.146-29.199 3.399l8.209-124.856a10 10 0 0 0-6.096-9.871c-22.84-9.626-38.569-30.344-42.017-54.37h138.207c-3.445 24.012-19.161 44.724-41.981 54.354a10 10 0 0 0-6.09 9.884l9.374 139.337a10.002 10.002 0 0 0 6.505 8.707c38.354 14.203 65.08 49.504 68.917 89.718H137.171z"/><path d="M289.224 46.438c3.499-4.273 2.871-10.574-1.402-14.072-4.274-3.5-10.574-2.87-14.072 1.402-7.585 9.265-18.793 14.578-30.75 14.578-5.522 0-10 4.478-10 10s4.478 10 10 10c17.977 0 34.825-7.986 46.224-21.908z"/></svg><svg viewBox="0 0 206.519 206.519" id="media-container--rotate"><path d="M202.621 105.207H101.31V3.897A3.896 3.896 0 0 0 97.414 0H3.897A3.896 3.896 0 0 0 0 3.897V136.38a3.896 3.896 0 0 0 3.897 3.897h62.345v62.345a3.896 3.896 0 0 0 3.897 3.897h132.483a3.896 3.896 0 0 0 3.897-3.897v-93.517a3.899 3.899 0 0 0-3.898-3.898zm-132.483 0a3.896 3.896 0 0 0-3.897 3.897v23.379H7.793V7.793h85.724v97.414H70.138zm3.896 93.517V113H198.723v85.724H74.034zM136.379 31.172a3.896 3.896 0 0 0 3.897 3.897c19.338 0 35.069 15.733 35.069 35.069 0 2.152 1.743 3.897 3.897 3.897s3.897-1.745 3.897-3.897c0-23.634-19.228-42.862-42.862-42.862a3.896 3.896 0 0 0-3.898 3.896z"/><path d="M137.521 50.459c.761.761 1.758 1.142 2.755 1.142s1.994-.381 2.755-1.142a3.895 3.895 0 0 0 0-5.51l-13.775-13.777 13.775-13.777a3.895 3.895 0 1 0-5.51-5.51l-16.53 16.532a3.895 3.895 0 0 0 0 5.51l16.53 16.532zM165.466 67.385a3.895 3.895 0 1 0-5.51 5.51l16.53 16.532a3.893 3.893 0 0 0 5.51 0l16.53-16.532a3.895 3.895 0 1 0-5.51-5.51l-13.774 13.777-13.776-13.777z"/></svg><svg viewBox="0 0 297 297" id="media-container--speaking"><path d="M194.388 69.011c-3.922 3.917-3.924 10.271-.005 14.192 26.363 26.382 26.347 69.324-.038 95.724-3.918 3.923-3.916 10.275.004 14.194a10.01 10.01 0 0 0 7.096 2.938c2.569 0 5.139-.982 7.099-2.942 34.202-34.224 34.219-89.895.037-124.103-3.917-3.919-10.273-3.923-14.193-.003zM156.868 97.801c-3.921 3.916-3.923 10.271-.005 14.191 10.51 10.519 10.509 27.633-.002 38.151-3.918 3.92-3.916 10.275.005 14.193a10 10 0 0 0 7.094 2.937 10 10 0 0 0 7.099-2.942c18.329-18.341 18.33-48.186.002-66.526-3.917-3.923-10.273-3.925-14.193-.004z"/><path d="M253.01 24.56c-3.918-3.922-10.272-3.924-14.192-.006-3.922 3.918-3.924 10.273-.005 14.193 50.854 50.887 50.832 133.707-.052 184.618-3.919 3.92-3.917 10.275.004 14.193a10.006 10.006 0 0 0 7.095 2.938c2.568 0 5.139-.982 7.099-2.942 58.702-58.734 58.725-154.284.051-212.994zM73.015 195.793c25.803-1.778 46.258-23.349 46.258-49.627 0-27.437-22.297-49.757-49.704-49.757s-49.705 22.32-49.705 49.757c0 26.276 20.454 47.847 46.259 49.627-19.32.743-36.335 7.723-48.193 19.86C5.747 228.122-.444 245.386.025 265.581c.127 5.449 4.581 9.803 10.033 9.803H129.07c5.452 0 9.907-4.354 10.033-9.805.469-20.196-5.724-37.462-17.907-49.931-11.857-12.134-28.865-19.112-48.181-19.855zm-33.079-49.627c0-16.367 13.293-29.685 29.633-29.685s29.632 13.317 29.632 29.685c0 16.37-13.292 29.688-29.632 29.688-16.34 0-29.633-13.318-29.633-29.688zM20.559 255.311c1.307-10.39 5.233-18.983 11.729-25.63 8.75-8.956 21.99-13.888 37.279-13.888 15.288 0 28.524 4.93 37.272 13.884 6.495 6.646 10.423 15.242 11.729 25.634H20.559z"/></svg><svg viewBox="0 0 60.442 60.442" id="media-container--sync"><path d="M54.427 38.766C59.284 25.07 52.094 9.975 38.399 5.117a2 2 0 0 0-1.338 3.77c11.617 4.121 17.717 16.926 13.597 28.542-2.059 5.804-6.291 10.38-11.809 12.877l3.438-9.692a2 2 0 1 0-3.77-1.338l-4.91 13.846a2 2 0 0 0 1.216 2.554l13.116 4.65a2.002 2.002 0 0 0 2.554-1.216 2 2 0 0 0-1.216-2.554l-8.174-2.899c6.21-2.998 10.972-8.262 13.324-14.891zM6.015 21.677C1.158 35.373 8.348 50.468 22.043 55.326a2.002 2.002 0 0 0 2.554-1.216 2 2 0 0 0-1.216-2.554C11.764 47.435 5.664 34.631 9.784 23.014c2.059-5.804 6.291-10.381 11.809-12.877l-3.438 9.692a2 2 0 1 0 3.77 1.338l4.91-13.846a2 2 0 0 0-1.216-2.554L12.502.115a2.001 2.001 0 0 0-1.338 3.77l8.175 2.9c-6.21 2.998-10.973 8.263-13.324 14.892z"/></svg><svg viewBox="0 0 512 512" id="media-container--video-camera"><path d="M507.698 214.151a9.625 9.625 0 0 0-9.076-.877l-102.79 42.83c-2.486-35.09-31.748-62.896-67.455-62.896h-9.833c23.552-17.635 38.889-45.665 38.889-77.283 0-53.269-43.34-96.604-96.604-96.604-45.672 0-83.955 31.896-93.969 74.561-13.299-16.029-33.356-26.259-55.766-26.259-39.953 0-72.453 32.5-72.453 72.453 0 21.148 9.163 40.148 23.66 53.406C27.493 196.246 0 225.402 0 260.915v164.056c0 37.335 30.368 67.708 67.698 67.708h260.679c35.707 0 64.969-27.807 67.455-62.896l102.79 42.83a9.646 9.646 0 0 0 9.076-.878 9.659 9.659 0 0 0 4.302-8.038V222.189a9.656 9.656 0 0 0-4.302-8.038zM260.83 38.641c42.613 0 77.283 34.67 77.283 77.283s-34.67 77.283-77.283 77.283-77.283-34.67-77.283-77.283 34.67-77.283 77.283-77.283zm-82.269 127.661a97.185 97.185 0 0 0 24.554 26.906h-42.929c8.012-7.409 14.342-16.571 18.375-26.906zM57.962 140.075c0-29.297 23.84-53.132 53.132-53.132 29.292 0 53.132 23.835 53.132 53.132 0 29.297-23.84 53.132-53.132 53.132-29.292.001-53.132-23.834-53.132-53.132zm318.793 130.416v154.481c0 26.679-21.698 48.387-48.377 48.387H67.698c-26.679 0-48.378-21.708-48.378-48.387V260.915c0-26.679 21.698-48.387 48.378-48.387h260.679c26.679 0 48.377 21.708 48.377 48.387v9.576zm115.924 178.717l-96.604-40.25V276.929l96.604-40.25v212.529z"/></svg><svg viewBox="0 0 437 437" id="media-container--video-lecture"><path d="M128.489 303.501H308.51c16.783 0-14.159-73.667-14.159-73.667-1.833-4.383-6.241-7.193-10.456-8.92l-28.467-13.107-13.677-11.532-21.976 21.856h-.017l9.482 63.396a.843.843 0 0 1-.152.619l-9.914 13.57a.843.843 0 0 1-1.356 0l-9.917-13.57a.828.828 0 0 1-.15-.619l9.481-63.396h-.015l-21.974-21.856-13.677 11.532-28.466 13.107c-4.211 1.727-8.351 4.352-10.457 8.92.004 0-30.937 73.667-14.154 73.667z"/><path d="M218.5 202.135c21.713 0 50.841-27.127 51.335-72.615.315-31.566-14.718-50.456-51.335-50.456-36.618 0-51.656 18.89-51.335 50.456.493 45.488 25.923 72.615 51.335 72.615zm-10.32-59.938c26.547 2.827 49.694-34.302 49.318-1.058-.225 19.899-18.684 49.95-38.994 49.95-21.317 0-36.028-24.975-38.996-49.939-3.217-27.075 46.478-20.905 28.672 1.047z"/><path d="M417 29.59H20c-11.046 0-20 8.954-20 20v283.385c0 11.047 8.954 20 20 20h397c11.046 0 20-8.953 20-20V49.59c0-11.046-8.954-20-20-20zm-10 293.385H30V59.59h377v263.385zM0 384.782c0 6.102 4.946 11.049 11.047 11.049h106.366v-22.097H11.047C4.946 373.734 0 378.681 0 384.782zM425.952 373.734H160.153v22.098h265.799c6.102 0 11.048-4.947 11.048-11.049 0-6.103-4.946-11.049-11.048-11.049zM138.786 362.154c-7.326 0-13.286 5.961-13.286 13.286v18.683c0 7.326 5.96 13.287 13.286 13.287 7.325 0 13.284-5.961 13.284-13.287V375.44c0-7.325-5.959-13.286-13.284-13.286z"/></svg><svg viewBox="0 0 611.999 611.999" id="notification-bell"><path d="M570.107 500.254c-65.037-29.371-67.511-155.441-67.559-158.622v-84.578c0-81.402-49.742-151.399-120.427-181.203C381.969 34 347.883 0 306.001 0c-41.883 0-75.968 34.002-76.121 75.849-70.682 29.804-120.425 99.801-120.425 181.203v84.578c-.046 3.181-2.522 129.251-67.561 158.622a17.257 17.257 0 0 0 7.103 32.986h164.88c3.38 18.594 12.172 35.892 25.619 49.903 17.86 18.608 41.479 28.856 66.502 28.856 25.025 0 48.644-10.248 66.502-28.856 13.449-14.012 22.241-31.311 25.619-49.903h164.88a17.26 17.26 0 0 0 16.872-13.626 17.25 17.25 0 0 0-9.764-19.358zm-85.673-60.395c6.837 20.728 16.518 41.544 30.246 58.866H97.32c13.726-17.32 23.407-38.135 30.244-58.866h356.87zM306.001 34.515c18.945 0 34.963 12.73 39.975 30.082-12.912-2.678-26.282-4.09-39.975-4.09s-27.063 1.411-39.975 4.09c5.013-17.351 21.031-30.082 39.975-30.082zM143.97 341.736v-84.685c0-89.343 72.686-162.029 162.031-162.029s162.031 72.686 162.031 162.029v84.826c.023 2.596.427 29.879 7.303 63.465H136.663c6.88-33.618 7.286-60.949 7.307-63.606zm162.031 235.749c-26.341 0-49.33-18.992-56.709-44.246h113.416c-7.379 25.254-30.364 44.246-56.707 44.246z"/><path d="M306.001 119.235c-74.25 0-134.657 60.405-134.657 134.654 0 9.531 7.727 17.258 17.258 17.258 9.531 0 17.258-7.727 17.258-17.258 0-55.217 44.923-100.139 100.142-100.139 9.531 0 17.258-7.727 17.258-17.258-.001-9.532-7.728-17.257-17.259-17.257z"/></svg><svg viewBox="0 0 473.806 473.806" id="phone-call"><path d="M374.456 293.506c-9.7-10.1-21.4-15.5-33.8-15.5-12.3 0-24.1 5.3-34.2 15.4l-31.6 31.5c-2.6-1.4-5.2-2.7-7.7-4-3.6-1.8-7-3.5-9.9-5.3-29.6-18.8-56.5-43.3-82.3-75-12.5-15.8-20.9-29.1-27-42.6 8.2-7.5 15.8-15.3 23.2-22.8 2.8-2.8 5.6-5.7 8.4-8.5 21-21 21-48.2 0-69.2l-27.3-27.3c-3.1-3.1-6.3-6.3-9.3-9.5-6-6.2-12.3-12.6-18.8-18.6-9.7-9.6-21.3-14.7-33.5-14.7s-24 5.1-34 14.7l-.2.2-34 34.3c-12.8 12.8-20.1 28.4-21.7 46.5-2.4 29.2 6.2 56.4 12.8 74.2 16.2 43.7 40.4 84.2 76.5 127.6 43.8 52.3 96.5 93.6 156.7 122.7 23 10.9 53.7 23.8 88 26 2.1.1 4.3.2 6.3.2 23.1 0 42.5-8.3 57.7-24.8.1-.2.3-.3.4-.5 5.2-6.3 11.2-12 17.5-18.1 4.3-4.1 8.7-8.4 13-12.9 9.9-10.3 15.1-22.3 15.1-34.6 0-12.4-5.3-24.3-15.4-34.3l-54.9-55.1zm35.8 105.3c-.1 0-.1.1 0 0-3.9 4.2-7.9 8-12.2 12.2-6.5 6.2-13.1 12.7-19.3 20-10.1 10.8-22 15.9-37.6 15.9-1.5 0-3.1 0-4.6-.1-29.7-1.9-57.3-13.5-78-23.4-56.6-27.4-106.3-66.3-147.6-115.6-34.1-41.1-56.9-79.1-72-119.9-9.3-24.9-12.7-44.3-11.2-62.6 1-11.7 5.5-21.4 13.8-29.7l34.1-34.1c4.9-4.6 10.1-7.1 15.2-7.1 6.3 0 11.4 3.8 14.6 7l.3.3c6.1 5.7 11.9 11.6 18 17.9 3.1 3.2 6.3 6.4 9.5 9.7l27.3 27.3c10.6 10.6 10.6 20.4 0 31-2.9 2.9-5.7 5.8-8.6 8.6-8.4 8.6-16.4 16.6-25.1 24.4-.2.2-.4.3-.5.5-8.6 8.6-7 17-5.2 22.7l.3.9c7.1 17.2 17.1 33.4 32.3 52.7l.1.1c27.6 34 56.7 60.5 88.8 80.8 4.1 2.6 8.3 4.7 12.3 6.7 3.6 1.8 7 3.5 9.9 5.3.4.2.8.5 1.2.7 3.4 1.7 6.6 2.5 9.9 2.5 8.3 0 13.5-5.2 15.2-6.9l34.2-34.2c3.4-3.4 8.8-7.5 15.1-7.5 6.2 0 11.3 3.9 14.4 7.3l.2.2 55.1 55.1c10.3 10.2 10.3 20.7.1 31.3zM256.056 112.706c26.2 4.4 50 16.8 69 35.8s31.3 42.8 35.8 69c1.1 6.6 6.8 11.2 13.3 11.2.8 0 1.5-.1 2.3-.2 7.4-1.2 12.3-8.2 11.1-15.6-5.4-31.7-20.4-60.6-43.3-83.5s-51.8-37.9-83.5-43.3c-7.4-1.2-14.3 3.7-15.6 11s3.5 14.4 10.9 15.6zM473.256 209.006c-8.9-52.2-33.5-99.7-71.3-137.5s-85.3-62.4-137.5-71.3c-7.3-1.3-14.2 3.7-15.5 11-1.2 7.4 3.7 14.3 11.1 15.6 46.6 7.9 89.1 30 122.9 63.7 33.8 33.8 55.8 76.3 63.7 122.9 1.1 6.6 6.8 11.2 13.3 11.2.8 0 1.5-.1 2.3-.2 7.3-1.1 12.3-8.1 11-15.4z"/></svg></defs></svg>